# xmcd
#
# Track frame offsets: 
#        150
#        20275
#        40742
#        61987
#        80845
#        97830
#        114147
#        132637
#        150530
#        166792
#        182805
#
# Disc length: 2634 seconds
#
# Revision: 6
# Processed by: cddbd v1.5.2PL0 Copyright (c) Steve Scherf et al.
# Submitted via: ExactAudioCopy v0.99pb4
#
DISCID=7f0a480b
DTITLE=Jimmy Thackery and the Drivers - Trouble Man
DYEAR=1994
DGENRE=Blues
TTITLE0=Doin' 100
TTITLE1=Trouble Man
TTITLE2=Bullfrog
TTITLE3=Mercury Blues
TTITLE4=You Came Back To Me
TTITLE5=Don't Lose Your Cool
TTITLE6=Wild Night Out
TTITLE7=Lovin' You Right
TTITLE8=She Needs Everything
TTITLE9=Anchor To A Drowning Man
TTITLE10=Hang Up And Drive
EXTD=YEAR: 1994
EXTT0=
EXTT1=
EXTT2=
EXTT3=
EXTT4=
EXTT5=
EXTT6=
EXTT7=
EXTT8=
EXTT9=
EXTT10=
PLAYORDER=
